{
	"asset":{
		"generator":"Khronos glTF Blender I/O v4.2.57",
		"version":"2.0"
	},
	"scene":0,
	"scenes":[
		{
			"name":"Scene",
			"nodes":[
				0,
				1
			]
		}
	],
	"nodes":[
		{
			"mesh":0,
			"name":"cylender "
		},
		{
			"mesh":0,
			"name":"cylender .001",
			"translation":[
				-0.1817312240600586,
				1.514042854309082,
				-1.4547181129455566
			]
		}
	],
	"meshes":[
		{
			"name":"cylender ",
			"primitives":[
				{
					"attributes":{
						"POSITION":0,
						"NORMAL":1
					},
					"indices":2
				}
			]
		}
	],
	"accessors":[
		{
			"bufferView":0,
			"componentType":5126,
			"count":812,
			"max":[
				584,
				586.4000244140625,
				-263.6000061035156
			],
			"min":[
				0,
				413.6000061035156,
				-436.3999938964844
			],
			"type":"VEC3"
		},
		{
			"bufferView":1,
			"componentType":5126,
			"count":812,
			"type":"VEC3"
		},
		{
			"bufferView":2,
			"componentType":5123,
			"count":4860,
			"type":"SCALAR"
		}
	],
	"bufferViews":[
		{
			"buffer":0,
			"byteLength":9744,
			"byteOffset":0,
			"target":34962
		},
		{
			"buffer":0,
			"byteLength":9744,
			"byteOffset":9744,
			"target":34962
		},
		{
			"buffer":0,
			"byteLength":9720,
			"byteOffset":19488,
			"target":34963
		}
	],
	"buffers":[
		{
			"byteLength":29208,
			"uri":"untitled.bin"
		}
	]
}
